<svg width="113" height="93" viewBox="0 0 113 93" fill="none" xmlns="http://www.w3.org/2000/svg">
<g clip-path="url(#clip0_701_3565)">
<path d="M52.9563 60.8273C45.9831 53.8551 38.337 50.1962 35.8774 52.6549C35.6075 52.9376 35.4089 53.2805 35.298 53.6553L35.2584 53.6157L32.9094 63.242L30.5703 72.8395L27.7976 84.2038L26.0424 91.401L36.4342 87.4687L49.6519 82.4675L60.1967 78.4776L60.1841 78.465C60.5371 78.3524 60.8601 78.1614 61.1287 77.9063C63.5884 75.4466 59.9295 67.8005 52.9563 60.8273Z" fill="#DD1C4B"/>
<path d="M52.9563 60.8246C45.9833 53.8517 38.337 50.1927 35.8777 52.652C33.4184 55.1113 37.0774 62.7577 44.0503 69.7306C51.0232 76.7035 58.6695 80.3625 61.1289 77.9032C63.5882 75.4439 59.9292 67.7975 52.9563 60.8246Z" fill="#D1E3EE"/>
<path d="M59.2394 78.7887C57.9804 78.8107 56.7312 78.5629 55.5761 78.0618L46.9574 81.323L33.7353 86.3197L26.6452 89.0024L26.0424 91.4737L36.4342 87.5414L49.6519 82.5402L59.3294 78.8787L59.2394 78.7887Z" fill="#B21D48"/>
<path d="M70.1252 71.6816C70.0175 71.6813 69.9107 71.662 69.8094 71.6249C65.2423 69.9139 60.3053 69.4342 55.4942 70.2341L52.2807 70.7694C51.7888 70.8395 51.3331 70.4977 51.2629 70.0058C51.1951 69.5305 51.5124 69.0858 51.9838 68.9952L55.1982 68.4555C60.3211 67.6043 65.5776 68.1147 70.441 69.9354C70.9086 70.1034 71.1514 70.6187 70.9834 71.0862C70.8536 71.4475 70.509 71.6865 70.1252 71.6816Z" fill="#FFBF41"/>
<path d="M53.9316 66.2839C53.4347 66.281 53.0343 65.8758 53.0372 65.379C53.0392 65.036 53.236 64.724 53.5447 64.5746L72.4373 55.5781C72.886 55.3644 73.4229 55.5549 73.6366 56.0036C73.8502 56.4523 73.6597 56.9892 73.211 57.2029L54.3184 66.1994C54.1974 66.2559 54.0653 66.2848 53.9316 66.2839Z" fill="#FFBF41"/>
<path d="M43.411 64.4844C43.2924 64.4847 43.1749 64.4612 43.0655 64.4152C42.607 64.2239 42.3902 63.6971 42.5815 63.2385V63.2384L43.8896 60.0996C45.9023 55.2904 46.3715 49.9748 45.2328 44.8874C45.1161 44.4044 45.4131 43.9184 45.896 43.8016C46.379 43.6849 46.865 43.9819 46.9817 44.4648C46.9843 44.4755 46.9867 44.4861 46.9889 44.4969C48.2088 49.9467 47.7058 55.6408 45.5495 60.7923L44.2405 63.9312C44.1008 64.2659 43.7738 64.4841 43.411 64.4844Z" fill="#FFBF41"/>
<path d="M74.6235 75.2802C75.6172 75.2802 76.4228 74.4747 76.4228 73.4809C76.4228 72.4872 75.6172 71.6816 74.6235 71.6816C73.6298 71.6816 72.8242 72.4872 72.8242 73.4809C72.8242 74.4747 73.6298 75.2802 74.6235 75.2802Z" fill="#D5557E"/>
<path d="M53.0319 50.0902C54.0256 50.0902 54.8312 49.2846 54.8312 48.2909C54.8312 47.2972 54.0256 46.4916 53.0319 46.4916C52.0381 46.4916 51.2326 47.2972 51.2326 48.2909C51.2326 49.2846 52.0381 50.0902 53.0319 50.0902Z" fill="#DD95C1"/>
<path d="M44.935 41.9931C43.9412 41.9931 43.1357 41.1876 43.1357 40.1938C43.1357 39.2001 43.9412 38.3945 44.935 38.3945C45.9288 38.3945 46.7343 39.2001 46.7343 40.1938C46.7343 41.1876 45.9288 41.9931 44.935 41.9931Z" fill="#7FCCCB"/>
<path d="M70.1252 45.5918C69.6284 45.5918 69.2256 45.189 69.2256 44.6921V43.7925C69.2256 43.2956 69.6284 42.8928 70.1252 42.8928C70.622 42.8928 71.0249 43.2956 71.0249 43.7925V44.6921C71.0249 45.189 70.6221 45.5918 70.1252 45.5918Z" fill="#2276BB"/>
<path d="M70.1252 41.0935C69.6284 41.0935 69.2256 40.6907 69.2256 40.1938V39.2942C69.2256 38.7973 69.6284 38.3945 70.1252 38.3945C70.622 38.3945 71.0249 38.7973 71.0249 39.2942V40.1938C71.0249 40.6907 70.6221 41.0935 70.1252 41.0935Z" fill="#2276BB"/>
<path d="M72.8241 42.8927H71.9245C71.4277 42.8927 71.0248 42.4899 71.0248 41.993C71.0248 41.4962 71.4277 41.0934 71.9245 41.0934H72.8241C73.321 41.0934 73.7238 41.4962 73.7238 41.993C73.7238 42.4899 73.3211 42.8927 72.8241 42.8927Z" fill="#2276BB"/>
<path d="M68.3259 42.8927H67.4263C66.9294 42.8927 66.5266 42.4899 66.5266 41.993C66.5266 41.4962 66.9294 41.0934 67.4263 41.0934H68.3259C68.8227 41.0934 69.2256 41.4962 69.2256 41.993C69.2256 42.4899 68.8229 42.8927 68.3259 42.8927Z" fill="#2276BB"/>
<path d="M33.1838 64.4845C33.083 64.0994 32.993 63.7108 32.9094 63.3149L30.5703 72.9124L30.7502 75.1066C31.1423 79.7847 33.1519 84.18 36.4333 87.5371L49.6519 82.5405C49.5799 82.518 49.5052 82.5018 49.4332 82.4775C41.4179 79.4721 35.3596 72.7636 33.1838 64.4845Z" fill="white"/>
<path d="M49.6519 82.5404C49.5799 82.5179 49.5052 82.5017 49.4333 82.4774C48.5674 82.1496 47.7192 81.7763 46.8927 81.3591L34.9867 85.8637C35.4381 86.4491 35.9213 87.0093 36.4342 87.5415L49.6519 82.5404Z" fill="#F6F6E7"/>
<path d="M47.6339 65.3839C47.1371 65.3838 46.7344 64.9809 46.7345 64.484C46.7346 64.2292 46.8427 63.9864 47.0321 63.8158L56.0285 55.719C56.4043 55.3939 56.9724 55.4349 57.2975 55.8106C57.6136 56.1759 57.5848 56.7256 57.2323 57.0558L48.2358 65.1527C48.0707 65.3015 47.8562 65.3838 47.6339 65.3839Z" fill="#FFBF41"/>
<path d="M73.7238 61.7855C73.227 61.7855 72.8242 61.3827 72.8242 60.8858V59.9862C72.8242 59.4894 73.227 59.0865 73.7238 59.0865C74.2206 59.0865 74.6234 59.4894 74.6234 59.9862V60.8858C74.6234 61.3827 74.2207 61.7855 73.7238 61.7855Z" fill="#FFDB43"/>
<path d="M76.9049 60.4674C76.6662 60.468 76.4371 60.3731 76.2689 60.2038L75.6328 59.5677C75.2877 59.2103 75.2975 58.6407 75.6548 58.2956C76.0035 57.9589 76.5562 57.9589 76.9049 58.2956L77.541 58.9317C77.8923 59.2831 77.8922 59.8527 77.5407 60.204C77.3722 60.3726 77.1434 60.4674 76.9049 60.4674Z" fill="#FFDB43"/>
<path d="M78.222 57.2871H77.3223C76.8255 57.2871 76.4227 56.8843 76.4227 56.3874C76.4227 55.8906 76.8255 55.4878 77.3223 55.4878H78.222C78.7188 55.4878 79.1216 55.8906 79.1216 56.3874C79.1216 56.8843 78.7189 57.2871 78.222 57.2871Z" fill="#FFDB43"/>
<path d="M76.2689 54.7427C75.772 54.7426 75.3693 54.3398 75.3694 53.8428C75.3694 53.6043 75.4642 53.3756 75.6328 53.207L76.2689 52.571C76.6263 52.2257 77.1957 52.2356 77.541 52.593C77.8777 52.9416 77.8777 53.4943 77.541 53.8431L76.9049 54.4791C76.7363 54.6478 76.5075 54.7427 76.2689 54.7427Z" fill="#FFDB43"/>
<path d="M73.7238 53.6884C73.227 53.6884 72.8242 53.2856 72.8242 52.7888V51.8892C72.8242 51.3923 73.227 50.9895 73.7238 50.9895C74.2206 50.9895 74.6234 51.3923 74.6234 51.8892V52.7888C74.6234 53.2856 74.2207 53.6884 73.7238 53.6884Z" fill="#FFDB43"/>
<path d="M71.1787 54.7431C70.9401 54.7431 70.7113 54.6482 70.5427 54.4795L69.9066 53.8435C69.5615 53.4861 69.5713 52.9165 69.9287 52.5714C70.2773 52.2347 70.83 52.2347 71.1787 52.5714L71.8148 53.2074C72.1661 53.5588 72.166 54.1284 71.8145 54.4797C71.646 54.6483 71.4172 54.7431 71.1787 54.7431Z" fill="#FFDB43"/>
<path d="M30.5406 39.2941L31.9306 42.1109L35.0389 42.5625L32.7898 44.7549L33.3206 47.8506L30.5406 46.3887L27.7607 47.8506L28.2915 44.7549L26.0424 42.5625L29.1507 42.1109L30.5406 39.2941Z" fill="#FFDB43"/>
<path d="M78.8374 87.1252C78.4095 85.6087 77.4242 84.3102 76.079 83.4897L75.7084 82.9337C73.6301 79.8257 70.362 77.7125 66.675 77.0923C66.1831 77.0221 65.7275 77.364 65.6573 77.8558C65.5895 78.3311 65.9067 78.7758 66.3781 78.8664C69.0375 79.3178 71.461 80.6688 73.2434 82.6935C71.7449 82.963 70.4343 83.863 69.6448 85.1648C68.6758 86.9001 69.2972 89.0922 71.0325 90.0612C72.7678 91.0301 74.9599 90.4088 75.9288 88.6735C76.2989 87.959 76.4987 87.1686 76.5127 86.364C77.4699 87.7543 77.5465 89.57 76.7097 91.0359C76.4562 91.4633 76.5971 92.0152 77.0245 92.2687C77.4518 92.5222 78.0037 92.3812 78.2572 91.9539C78.2653 91.9402 78.2731 91.9264 78.2805 91.9122C79.0978 90.4549 79.2983 88.7311 78.8374 87.1252ZM74.3598 87.7954C73.8796 88.6655 72.7851 88.9815 71.9151 88.5013C71.0451 88.0211 70.7291 86.9266 71.2092 86.0566C71.2119 86.0518 71.2146 86.0468 71.2173 86.042C71.7482 85.1727 72.6437 84.5899 73.6536 84.4568C73.81 84.4525 73.9649 84.4885 74.1034 84.5612C74.8627 84.9849 74.9032 86.822 74.3598 87.7954Z" fill="#2BB3CE"/>
</g>
<g opacity="0.8">
<path d="M104.962 44.1189H105.759V48.1061H104.962V44.1189Z" fill="#DC8B41"/>
<path d="M104.962 53.6882H105.759V57.6754H104.962V53.6882Z" fill="#DC8B41"/>
<path d="M98.5825 51.2959V50.4984H102.57V51.2959H98.5825Z" fill="#DC8B41"/>
<path d="M108.151 51.2958V50.4984H112.139V51.2958H108.151Z" fill="#DC8B41"/>
<path d="M100.286 46.3861L100.85 45.8222L103.669 48.6416L103.105 49.2055L100.286 46.3861Z" fill="#DC8B41"/>
<path d="M107.052 53.1526L107.616 52.5888L110.435 55.4081L109.871 55.972L107.052 53.1526Z" fill="#DC8B41"/>
<path d="M110.435 46.3861L109.871 45.8223L107.052 48.6416L107.616 49.2055L110.435 46.3861Z" fill="#DC8B41"/>
<path d="M103.669 53.1526L103.105 52.5888L100.285 55.4081L100.849 55.972L103.669 53.1526Z" fill="#DC8B41"/>
</g>
<path d="M98.5511 0.395264H99.2665V3.2572H98.5511V0.395264Z" fill="#73EEDC"/>
<path d="M98.551 11.5063H99.2665V14.3682H98.551V11.5063Z" fill="#73EEDC"/>
<path d="M92.1116 7.5501V6.83461H94.9736V7.5501H92.1116Z" fill="#73EEDC"/>
<path d="M103.222 7.55011V6.83462H106.084V7.55011H103.222Z" fill="#73EEDC"/>
<path d="M93.9052 2.50512L94.4112 1.9992L96.4348 4.02289L95.9289 4.52881L93.9052 2.50512Z" fill="#73EEDC"/>
<path d="M101.762 10.3618L102.268 9.85589L104.292 11.8796L103.786 12.3855L101.762 10.3618Z" fill="#73EEDC"/>
<path d="M104.292 2.50512L103.786 1.9992L101.762 4.02289L102.268 4.52881L104.292 2.50512Z" fill="#73EEDC"/>
<path d="M96.4343 10.3618L95.9284 9.85589L93.9047 11.8796L94.4107 12.3855L96.4343 10.3618Z" fill="#73EEDC"/>
<circle cx="79.0085" cy="16.9009" r="2.39232" fill="#41DC65"/>
<path d="M4.86139 79.6384C4.86139 80.743 3.96596 81.6384 2.86139 81.6384C1.75682 81.6384 0.861389 80.743 0.861389 79.6384C0.861389 78.5339 1.75682 77.6384 2.86139 77.6384C3.96596 77.6384 4.86139 78.5339 4.86139 79.6384ZM1.86139 79.6384C1.86139 80.1907 2.3091 80.6384 2.86139 80.6384C3.41367 80.6384 3.86139 80.1907 3.86139 79.6384C3.86139 79.0861 3.41367 78.6384 2.86139 78.6384C2.3091 78.6384 1.86139 79.0861 1.86139 79.6384Z" fill="#41DC65"/>
<g clip-path="url(#clip1_701_3565)">
<path d="M16.3601 9.21761C16.0311 9.45455 15.9564 9.91329 16.1934 10.2423L17.5217 12.0869C17.7587 12.4159 18.2175 12.4906 18.5465 12.2536C18.8755 12.0166 18.9502 11.5579 18.7132 11.2289L17.3848 9.38432C17.1479 9.05527 16.6891 8.98066 16.3601 9.21761Z" fill="#FFA92C"/>
<path d="M18.7865 11.9588C18.5344 11.9839 18.2762 11.8783 18.1174 11.6579L16.7891 9.81337C16.6304 9.59295 16.6121 9.31461 16.7158 9.08345C16.1541 9.13936 15.8634 9.78412 16.1934 10.2424L17.5217 12.0869C17.8514 12.5446 18.5551 12.4744 18.7865 11.9588Z" fill="#FF8828"/>
<path d="M19.4699 22.4142C19.8701 22.4792 20.2473 22.2076 20.3124 21.8074L20.6774 19.5639C20.7425 19.1637 20.4709 18.7865 20.0707 18.7214C19.6704 18.6562 19.2933 18.9278 19.2282 19.3281L18.8631 21.5716C18.7981 21.9718 19.0697 22.349 19.4699 22.4142Z" fill="#FFA92C"/>
<path d="M21.2255 11.6223C21.6257 11.6874 22.0028 11.4158 22.0679 11.0156L22.433 8.77206C22.4981 8.37186 22.2265 7.99471 21.8263 7.9296C21.4261 7.86449 21.0489 8.13613 20.9838 8.53633L20.6188 10.7798C20.5536 11.18 20.8252 11.5572 21.2255 11.6223Z" fill="#FFA92C"/>
<path d="M19.5707 21.6159L19.9357 19.3723C19.976 19.1246 20.1361 18.9263 20.347 18.8265C19.9028 18.5434 19.3128 18.8079 19.2283 19.3279L18.8632 21.5714C18.7682 22.1559 19.3697 22.6044 19.901 22.3531C19.6611 22.2001 19.5221 21.9145 19.5707 21.6159Z" fill="#FF8828"/>
<path d="M21.3264 10.8242L21.6914 8.58077C21.7317 8.33301 21.8918 8.13474 22.1028 8.03493C22.0212 7.98292 21.928 7.94612 21.8264 7.9296C21.4262 7.86449 21.049 8.13613 20.9839 8.53633L20.6189 10.7798C20.5538 11.18 20.8254 11.5572 21.2256 11.6223C21.378 11.6471 21.527 11.6228 21.6567 11.5614C21.4168 11.4085 21.2778 11.1229 21.3264 10.8242Z" fill="#FF8828"/>
<path d="M22.7495 18.0898C22.4205 18.3267 22.3458 18.7855 22.5828 19.1145L23.9112 20.9591C24.1481 21.2881 24.6069 21.3628 24.9359 21.1258C25.2649 20.8888 25.3396 20.4301 25.1026 20.1011L23.7742 18.2565C23.5373 17.9275 23.0785 17.8529 22.7495 18.0898Z" fill="#FFA92C"/>
<path d="M25.1758 20.831C24.9237 20.856 24.6655 20.7505 24.5068 20.53L23.1784 18.6855C23.0197 18.4651 23.0015 18.1868 23.1051 17.9556C22.9809 17.968 22.8581 18.0115 22.7494 18.0898C22.4204 18.3267 22.3457 18.7855 22.5827 19.1145L23.9111 20.9591C24.2407 21.4168 24.9445 21.3466 25.1758 20.831Z" fill="#FF8828"/>
<path d="M13.4058 13.9936C13.3407 14.3937 13.6123 14.7709 14.0125 14.836L16.2561 15.201C16.6563 15.2661 17.0335 14.9945 17.0986 14.5943C17.1637 14.1941 16.8921 13.8169 16.4919 13.7518L14.2483 13.3869C13.8481 13.3217 13.4709 13.5933 13.4058 13.9936Z" fill="#FFA92C"/>
<path d="M17.0599 14.216C16.8993 14.412 16.6421 14.5199 16.374 14.4764L14.1304 14.1114C13.8624 14.0677 13.6526 13.8838 13.5625 13.6471C13.2048 14.0837 13.4552 14.7453 14.0125 14.8359L16.2561 15.2009C16.8136 15.2916 17.2606 14.7435 17.0599 14.216Z" fill="#FF8828"/>
<path d="M24.1974 15.7493C24.1322 16.1495 24.4038 16.5266 24.8041 16.5917L27.0477 16.9567C27.4479 17.0218 27.8251 16.7502 27.8902 16.3501C27.9552 15.9498 27.6836 15.5727 27.2834 15.5076L25.0398 15.1426C24.6396 15.0774 24.2624 15.3491 24.1974 15.7493Z" fill="#FFA92C"/>
<path d="M27.8516 15.9719C27.691 16.1679 27.4338 16.2758 27.1657 16.2322L24.9221 15.8672C24.654 15.8236 24.4443 15.6397 24.3541 15.4029C23.9961 15.8401 24.2475 16.5013 24.8042 16.5918L27.0478 16.9568C27.6046 17.0474 28.0525 16.5001 27.8516 15.9719Z" fill="#FF8828"/>
<path d="M14.6939 19.4599C14.9307 19.7889 15.3895 19.8635 15.7186 19.6266L17.5631 18.2982C17.8921 18.0613 17.9667 17.6025 17.7298 17.2735C17.4929 16.9444 17.0341 16.8698 16.705 17.1068L14.8605 18.4352C14.5315 18.6721 14.4569 19.1309 14.6939 19.4599Z" fill="#FFA92C"/>
<path d="M17.4351 17.0335C17.4601 17.2856 17.3546 17.5438 17.1341 17.7026L15.2896 19.0309C15.0692 19.1896 14.7908 19.2079 14.5597 19.1042C14.6157 19.6667 15.2609 19.9562 15.7186 19.6266L17.5631 18.2983C18.0215 17.9681 17.9499 17.2645 17.4351 17.0335Z" fill="#FF8828"/>
<path d="M23.5661 13.0705C23.8031 13.3995 24.2618 13.4741 24.5908 13.2372L26.4354 11.9088C26.7644 11.6719 26.8391 11.2131 26.6022 10.8841C26.3652 10.555 25.9064 10.4804 25.5774 10.7174L23.7329 12.0457C23.4038 12.2827 23.3292 12.7414 23.5661 13.0705Z" fill="#FFA92C"/>
<path d="M26.3073 10.6437C26.3324 10.8958 26.2269 11.1539 26.0064 11.3127L24.1619 12.6411C23.9414 12.7998 23.6631 12.818 23.432 12.7144C23.4879 13.276 24.1326 13.5668 24.5909 13.2368L26.4354 11.9084C26.8926 11.5792 26.8235 10.8754 26.3073 10.6437Z" fill="#FF8828"/>
<path d="M32.9911 13.6805C32.7721 13.8382 32.7224 14.1436 32.8801 14.3626L33.7643 15.5903C33.922 15.8093 34.2274 15.859 34.4463 15.7013C34.6653 15.5436 34.715 15.2382 34.5573 15.0192L33.6731 13.7915C33.5154 13.5725 33.2101 13.5228 32.9911 13.6805Z" fill="#F2D422"/>
<path d="M34.606 15.505C34.4382 15.5216 34.2664 15.4513 34.1607 15.3047L33.2766 14.077C33.171 13.9303 33.1588 13.745 33.2278 13.5912C32.854 13.6283 32.6605 14.0576 32.8801 14.3626L33.7642 15.5903C33.9834 15.8945 34.4518 15.8485 34.606 15.505Z" fill="#E8C018"/>
<path d="M35.0608 22.4635C35.3271 22.5068 35.5782 22.326 35.6215 22.0597L35.8644 20.5665C35.9077 20.3001 35.727 20.0491 35.4607 20.0058C35.1943 19.9624 34.9432 20.1432 34.8999 20.4096L34.6569 21.9028C34.6137 22.1692 34.7944 22.4202 35.0608 22.4635Z" fill="#F2D422"/>
<path d="M36.2293 15.2808C36.4957 15.3241 36.7467 15.1433 36.79 14.877L37.033 13.3838C37.0763 13.1175 36.8955 12.8664 36.6292 12.8231C36.3628 12.7798 36.1118 12.9606 36.0684 13.2269L35.8255 14.7201C35.7821 14.9864 35.9629 15.2375 36.2293 15.2808Z" fill="#F2D422"/>
<path d="M35.1279 21.9322L35.3709 20.439C35.3977 20.2741 35.5042 20.1421 35.6446 20.0757C35.3496 19.8878 34.9564 20.0627 34.9 20.4095L34.657 21.9027C34.5938 22.2917 34.9941 22.5903 35.3478 22.4229C35.1881 22.3212 35.0956 22.1311 35.1279 21.9322Z" fill="#E8C018"/>
<path d="M36.2964 14.7495L36.5393 13.2563C36.5662 13.0914 36.6727 12.9595 36.8131 12.8931C36.5177 12.7047 36.1248 12.8807 36.0684 13.2268L35.8255 14.7199C35.7622 15.1089 36.1627 15.4075 36.5162 15.2401C36.3565 15.1384 36.264 14.9483 36.2964 14.7495Z" fill="#E8C018"/>
<path d="M37.2437 19.5856C37.0247 19.7432 36.975 20.0486 37.1327 20.2676L38.0168 21.4953C38.1746 21.7143 38.4799 21.764 38.6989 21.6063C38.9179 21.4486 38.9676 21.1432 38.8098 20.9242L37.9257 19.6965C37.768 19.4775 37.4626 19.4279 37.2437 19.5856Z" fill="#F2D422"/>
<path d="M38.8586 21.41C38.6909 21.4267 38.519 21.3564 38.4133 21.2097L37.5292 19.982C37.4236 19.8353 37.4114 19.6501 37.4804 19.4962C37.1061 19.5335 36.9133 19.963 37.1327 20.2676L38.0168 21.4953C38.2365 21.8002 38.7047 21.7529 38.8586 21.41Z" fill="#E8C018"/>
<path d="M31.0248 16.8592C30.9815 17.1255 31.1623 17.3765 31.4286 17.4198L32.9219 17.6628C33.1883 17.7061 33.4393 17.5253 33.4826 17.259C33.5259 16.9926 33.3452 16.7416 33.0788 16.6982L31.5856 16.4554C31.3191 16.412 31.0681 16.5928 31.0248 16.8592Z" fill="#F2D422"/>
<path d="M33.4568 17.0071C33.3499 17.1375 33.1788 17.2094 33.0003 17.1803L31.507 16.9374C31.3286 16.9084 31.189 16.786 31.129 16.6284C30.8907 16.9193 31.0581 17.3594 31.4286 17.4197L32.9219 17.6626C33.293 17.723 33.5904 17.3581 33.4568 17.0071Z" fill="#E8C018"/>
<path d="M38.2074 18.0277C38.1641 18.2941 38.3448 18.5451 38.6112 18.5884L40.1045 18.8314C40.3708 18.8747 40.6218 18.6939 40.6652 18.4276C40.7085 18.1612 40.5277 17.9102 40.2614 17.8668L38.7681 17.6239C38.5018 17.5806 38.2508 17.7614 38.2074 18.0277Z" fill="#F2D422"/>
<path d="M40.6394 18.1757C40.5325 18.3061 40.3614 18.3779 40.1829 18.3489L38.6897 18.1059C38.5112 18.0769 38.3717 17.9545 38.3116 17.797C38.0734 18.0878 38.2405 18.5279 38.6112 18.5882L40.1045 18.8312C40.4746 18.8914 40.7732 18.5276 40.6394 18.1757Z" fill="#E8C018"/>
<path d="M31.8821 20.497C32.0398 20.716 32.3451 20.7657 32.5641 20.608L33.7918 19.7238C34.0108 19.5661 34.0605 19.2608 33.9028 19.0418C33.7451 18.8228 33.4397 18.7731 33.2207 18.9308L31.993 19.8149C31.774 19.9727 31.7244 20.278 31.8821 20.497Z" fill="#F2D422"/>
<path d="M33.7065 18.8821C33.7232 19.0499 33.653 19.2217 33.5062 19.3274L32.2786 20.2115C32.1319 20.3171 31.9466 20.3293 31.7928 20.2603C31.8301 20.6347 32.2595 20.8274 32.5641 20.608L33.7918 19.7239C34.0962 19.5047 34.05 19.0362 33.7065 18.8821Z" fill="#E8C018"/>
<path d="M37.7872 16.2444C37.9449 16.4634 38.2503 16.5131 38.4693 16.3554L39.697 15.4713C39.9159 15.3136 39.9656 15.0082 39.8079 14.7892C39.6502 14.5702 39.3448 14.5205 39.1259 14.6783L37.8982 15.5623C37.6792 15.7201 37.6295 16.0255 37.7872 16.2444Z" fill="#F2D422"/>
<path d="M39.6117 14.6295C39.6283 14.7973 39.5581 14.9692 39.4114 15.0748L38.1837 15.959C38.037 16.0646 37.8517 16.0767 37.6979 16.0078C37.7352 16.3817 38.1644 16.575 38.4692 16.3555L39.6969 15.4713C40.0019 15.2518 39.9546 14.7836 39.6117 14.6295Z" fill="#E8C018"/>
</g>
<defs>
<clipPath id="clip0_701_3565">
<rect width="54" height="54" fill="white" transform="translate(25.5821 38.3945)"/>
</clipPath>
<clipPath id="clip1_701_3565">
<rect width="23.1098" height="23.1098" fill="white" transform="translate(10.4046 13.5051) rotate(-35.7597)"/>
</clipPath>
</defs>
</svg>
